<svg xmlns="http://www.w3.org/2000/svg" version="1.1" xmlns:xlink="http://www.w3.org/1999/xlink" xmlns:svgjs="http://svgjs.com/svgjs" width="1440" height="560" preserveAspectRatio="none" viewBox="0 0 1440 560"><g mask="url(&quot;#SvgjsMask1055&quot;)" fill="none"><rect width="1440" height="560" x="0" y="0" fill="rgba(242, 248, 255, 1)"></rect><path d="M6.39 92.35L36.7 109.85L36.7 144.85L6.39 162.35L-23.92 144.85L-23.92 109.85zM6.39 407.35L36.7 424.85L36.7 459.85L6.39 477.35L-23.92 459.85L-23.92 424.85zM67.01 92.35L97.33 109.85L97.33 144.85L67.01 162.35L36.7 144.85L36.7 109.85zM127.64 92.35L157.95 109.85L157.95 144.85L127.64 162.35L97.33 144.85L97.33 109.85zM157.95 144.85L188.26 162.35L188.26 197.35L157.95 214.85L127.64 197.35L127.64 162.35zM157.95 249.85L188.26 267.35L188.26 302.35L157.95 319.85L127.64 302.35L127.64 267.35zM157.95 459.85L188.26 477.35L188.26 512.35L157.95 529.85L127.64 512.35L127.64 477.35zM218.57 39.85L248.88 57.35L248.88 92.35L218.57 109.85L188.26 92.35L188.26 57.35zM218.57 459.85L248.88 477.35L248.88 512.35L218.57 529.85L188.26 512.35L188.26 477.35zM279.2 39.85L309.51 57.35L309.51 92.35L279.2 109.85L248.88 92.35L248.88 57.35zM339.82 459.85L370.13 477.35L370.13 512.35L339.82 529.85L309.51 512.35L309.51 477.35zM309.51 512.35L339.82 529.85L339.82 564.85L309.51 582.35L279.2 564.85L279.2 529.85zM400.44 249.85L430.75 267.35L430.75 302.35L400.44 319.85L370.13 302.35L370.13 267.35zM430.75 92.35L461.07 109.85L461.07 144.85L430.75 162.35L400.44 144.85L400.44 109.85zM461.07 249.85L491.38 267.35L491.38 302.35L461.07 319.85L430.75 302.35L430.75 267.35zM430.75 407.35L461.07 424.85L461.07 459.85L430.75 477.35L400.44 459.85L400.44 424.85zM521.69 144.85L552 162.35L552 197.35L521.69 214.85L491.38 197.35L491.38 162.35zM491.38 302.35L521.69 319.85L521.69 354.85L491.38 372.35L461.07 354.85L461.07 319.85zM552 -12.65L582.31 4.85L582.31 39.85L552 57.35L521.69 39.85L521.69 4.85zM552 197.35L582.31 214.85L582.31 249.85L552 267.35L521.69 249.85L521.69 214.85zM552 407.35L582.31 424.85L582.31 459.85L552 477.35L521.69 459.85L521.69 424.85zM612.63 -12.65L642.94 4.85L642.94 39.85L612.63 57.35L582.31 39.85L582.31 4.85zM612.63 302.35L642.94 319.85L642.94 354.85L612.63 372.35L582.31 354.85L582.31 319.85zM673.25 92.35L703.56 109.85L703.56 144.85L673.25 162.35L642.94 144.85L642.94 109.85zM673.25 197.35L703.56 214.85L703.56 249.85L673.25 267.35L642.94 249.85L642.94 214.85zM703.56 564.85L733.87 582.35L733.87 617.35L703.56 634.85L673.25 617.35L673.25 582.35zM733.87 302.35L764.18 319.85L764.18 354.85L733.87 372.35L703.56 354.85L703.56 319.85zM764.18 354.85L794.5 372.35L794.5 407.35L764.18 424.85L733.87 407.35L733.87 372.35zM733.87 512.35L764.18 529.85L764.18 564.85L733.87 582.35L703.56 564.85L703.56 529.85zM794.5 -12.65L824.81 4.85L824.81 39.85L794.5 57.35L764.18 39.85L764.18 4.85zM794.5 407.35L824.81 424.85L824.81 459.85L794.5 477.35L764.18 459.85L764.18 424.85zM824.81 564.85L855.12 582.35L855.12 617.35L824.81 634.85L794.5 617.35L794.5 582.35zM885.43 354.85L915.74 372.35L915.74 407.35L885.43 424.85L855.12 407.35L855.12 372.35zM946.05 354.85L976.37 372.35L976.37 407.35L946.05 424.85L915.74 407.35L915.74 372.35zM915.74 407.35L946.05 424.85L946.05 459.85L915.74 477.35L885.43 459.85L885.43 424.85zM1006.68 144.85L1036.99 162.35L1036.99 197.35L1006.68 214.85L976.37 197.35L976.37 162.35zM1036.99 -12.65L1067.3 4.85L1067.3 39.85L1036.99 57.35L1006.68 39.85L1006.68 4.85zM1097.61 92.35L1127.92 109.85L1127.92 144.85L1097.61 162.35L1067.3 144.85L1067.3 109.85zM1127.92 144.85L1158.24 162.35L1158.24 197.35L1127.92 214.85L1097.61 197.35L1097.61 162.35zM1127.92 249.85L1158.24 267.35L1158.24 302.35L1127.92 319.85L1097.61 302.35L1097.61 267.35zM1097.61 407.35L1127.92 424.85L1127.92 459.85L1097.61 477.35L1067.3 459.85L1067.3 424.85zM1127.92 459.85L1158.24 477.35L1158.24 512.35L1127.92 529.85L1097.61 512.35L1097.61 477.35zM1127.92 564.85L1158.24 582.35L1158.24 617.35L1127.92 634.85L1097.61 617.35L1097.61 582.35zM1188.55 39.85L1218.86 57.35L1218.86 92.35L1188.55 109.85L1158.24 92.35L1158.24 57.35zM1188.55 459.85L1218.86 477.35L1218.86 512.35L1188.55 529.85L1158.24 512.35L1158.24 477.35zM1218.86 302.35L1249.17 319.85L1249.17 354.85L1218.86 372.35L1188.55 354.85L1188.55 319.85zM1218.86 512.35L1249.17 529.85L1249.17 564.85L1218.86 582.35L1188.55 564.85L1188.55 529.85zM1279.48 -12.65L1309.8 4.85L1309.8 39.85L1279.48 57.35L1249.17 39.85L1249.17 4.85zM1309.8 459.85L1340.11 477.35L1340.11 512.35L1309.8 529.85L1279.48 512.35L1279.48 477.35zM1279.48 512.35L1309.8 529.85L1309.8 564.85L1279.48 582.35L1249.17 564.85L1249.17 529.85zM1370.42 249.85L1400.73 267.35L1400.73 302.35L1370.42 319.85L1340.11 302.35L1340.11 267.35zM1370.42 459.85L1400.73 477.35L1400.73 512.35L1370.42 529.85L1340.11 512.35L1340.11 477.35zM1400.73 92.35L1431.04 109.85L1431.04 144.85L1400.73 162.35L1370.42 144.85L1370.42 109.85z" stroke="rgba(143, 184, 225, 0.72)" stroke-width="2"></path><path d="M2.89 92.35 a3.5 3.5 0 1 0 7 0 a3.5 3.5 0 1 0 -7 0zM33.2 109.85 a3.5 3.5 0 1 0 7 0 a3.5 3.5 0 1 0 -7 0zM33.2 144.85 a3.5 3.5 0 1 0 7 0 a3.5 3.5 0 1 0 -7 0zM2.89 162.35 a3.5 3.5 0 1 0 7 0 a3.5 3.5 0 1 0 -7 0zM-27.42 144.85 a3.5 3.5 0 1 0 7 0 a3.5 3.5 0 1 0 -7 0zM-27.42 109.85 a3.5 3.5 0 1 0 7 0 a3.5 3.5 0 1 0 -7 0zM2.89 407.35 a3.5 3.5 0 1 0 7 0 a3.5 3.5 0 1 0 -7 0zM33.2 424.85 a3.5 3.5 0 1 0 7 0 a3.5 3.5 0 1 0 -7 0zM33.2 459.85 a3.5 3.5 0 1 0 7 0 a3.5 3.5 0 1 0 -7 0zM2.89 477.35 a3.5 3.5 0 1 0 7 0 a3.5 3.5 0 1 0 -7 0zM-27.42 459.85 a3.5 3.5 0 1 0 7 0 a3.5 3.5 0 1 0 -7 0zM-27.42 424.85 a3.5 3.5 0 1 0 7 0 a3.5 3.5 0 1 0 -7 0zM63.51 92.35 a3.5 3.5 0 1 0 7 0 a3.5 3.5 0 1 0 -7 0zM93.83 109.85 a3.5 3.5 0 1 0 7 0 a3.5 3.5 0 1 0 -7 0zM93.83 144.85 a3.5 3.5 0 1 0 7 0 a3.5 3.5 0 1 0 -7 0zM63.51 162.35 a3.5 3.5 0 1 0 7 0 a3.5 3.5 0 1 0 -7 0zM124.14 92.35 a3.5 3.5 0 1 0 7 0 a3.5 3.5 0 1 0 -7 0zM154.45 109.85 a3.5 3.5 0 1 0 7 0 a3.5 3.5 0 1 0 -7 0zM154.45 144.85 a3.5 3.5 0 1 0 7 0 a3.5 3.5 0 1 0 -7 0zM124.14 162.35 a3.5 3.5 0 1 0 7 0 a3.5 3.5 0 1 0 -7 0zM184.76 162.35 a3.5 3.5 0 1 0 7 0 a3.5 3.5 0 1 0 -7 0zM184.76 197.35 a3.5 3.5 0 1 0 7 0 a3.5 3.5 0 1 0 -7 0zM154.45 214.85 a3.5 3.5 0 1 0 7 0 a3.5 3.5 0 1 0 -7 0zM124.14 197.35 a3.5 3.5 0 1 0 7 0 a3.5 3.5 0 1 0 -7 0zM154.45 249.85 a3.5 3.5 0 1 0 7 0 a3.5 3.5 0 1 0 -7 0zM184.76 267.35 a3.5 3.5 0 1 0 7 0 a3.5 3.5 0 1 0 -7 0zM184.76 302.35 a3.5 3.5 0 1 0 7 0 a3.5 3.5 0 1 0 -7 0zM154.45 319.85 a3.5 3.5 0 1 0 7 0 a3.5 3.5 0 1 0 -7 0zM124.14 302.35 a3.5 3.5 0 1 0 7 0 a3.5 3.5 0 1 0 -7 0zM124.14 267.35 a3.5 3.5 0 1 0 7 0 a3.5 3.5 0 1 0 -7 0zM154.45 459.85 a3.5 3.5 0 1 0 7 0 a3.5 3.5 0 1 0 -7 0zM184.76 477.35 a3.5 3.5 0 1 0 7 0 a3.5 3.5 0 1 0 -7 0zM184.76 512.35 a3.5 3.5 0 1 0 7 0 a3.5 3.5 0 1 0 -7 0zM154.45 529.85 a3.5 3.5 0 1 0 7 0 a3.5 3.5 0 1 0 -7 0zM124.14 512.35 a3.5 3.5 0 1 0 7 0 a3.5 3.5 0 1 0 -7 0zM124.14 477.35 a3.5 3.5 0 1 0 7 0 a3.5 3.5 0 1 0 -7 0zM215.07 39.85 a3.5 3.5 0 1 0 7 0 a3.5 3.5 0 1 0 -7 0zM245.38 57.35 a3.5 3.5 0 1 0 7 0 a3.5 3.5 0 1 0 -7 0zM245.38 92.35 a3.5 3.5 0 1 0 7 0 a3.5 3.5 0 1 0 -7 0zM215.07 109.85 a3.5 3.5 0 1 0 7 0 a3.5 3.5 0 1 0 -7 0zM184.76 92.35 a3.5 3.5 0 1 0 7 0 a3.5 3.5 0 1 0 -7 0zM184.76 57.35 a3.5 3.5 0 1 0 7 0 a3.5 3.5 0 1 0 -7 0zM215.07 459.85 a3.5 3.5 0 1 0 7 0 a3.5 3.5 0 1 0 -7 0zM245.38 477.35 a3.5 3.5 0 1 0 7 0 a3.5 3.5 0 1 0 -7 0zM245.38 512.35 a3.5 3.5 0 1 0 7 0 a3.5 3.5 0 1 0 -7 0zM215.07 529.85 a3.5 3.5 0 1 0 7 0 a3.5 3.5 0 1 0 -7 0zM275.7 39.85 a3.5 3.5 0 1 0 7 0 a3.5 3.5 0 1 0 -7 0zM306.01 57.35 a3.5 3.5 0 1 0 7 0 a3.5 3.5 0 1 0 -7 0zM306.01 92.35 a3.5 3.5 0 1 0 7 0 a3.5 3.5 0 1 0 -7 0zM275.7 109.85 a3.5 3.5 0 1 0 7 0 a3.5 3.5 0 1 0 -7 0zM336.32 459.85 a3.5 3.5 0 1 0 7 0 a3.5 3.5 0 1 0 -7 0zM366.63 477.35 a3.5 3.5 0 1 0 7 0 a3.5 3.5 0 1 0 -7 0zM366.63 512.35 a3.5 3.5 0 1 0 7 0 a3.5 3.5 0 1 0 -7 0zM336.32 529.85 a3.5 3.5 0 1 0 7 0 a3.5 3.5 0 1 0 -7 0zM306.01 512.35 a3.5 3.5 0 1 0 7 0 a3.5 3.5 0 1 0 -7 0zM306.01 477.35 a3.5 3.5 0 1 0 7 0 a3.5 3.5 0 1 0 -7 0zM336.32 564.85 a3.5 3.5 0 1 0 7 0 a3.5 3.5 0 1 0 -7 0zM306.01 582.35 a3.5 3.5 0 1 0 7 0 a3.5 3.5 0 1 0 -7 0zM275.7 564.85 a3.5 3.5 0 1 0 7 0 a3.5 3.5 0 1 0 -7 0zM275.7 529.85 a3.5 3.5 0 1 0 7 0 a3.5 3.5 0 1 0 -7 0zM396.94 249.85 a3.5 3.5 0 1 0 7 0 a3.5 3.5 0 1 0 -7 0zM427.25 267.35 a3.5 3.5 0 1 0 7 0 a3.5 3.5 0 1 0 -7 0zM427.25 302.35 a3.5 3.5 0 1 0 7 0 a3.5 3.5 0 1 0 -7 0zM396.94 319.85 a3.5 3.5 0 1 0 7 0 a3.5 3.5 0 1 0 -7 0zM366.63 302.35 a3.5 3.5 0 1 0 7 0 a3.5 3.5 0 1 0 -7 0zM366.63 267.35 a3.5 3.5 0 1 0 7 0 a3.5 3.5 0 1 0 -7 0zM427.25 92.35 a3.5 3.5 0 1 0 7 0 a3.5 3.5 0 1 0 -7 0zM457.57 109.85 a3.5 3.5 0 1 0 7 0 a3.5 3.5 0 1 0 -7 0zM457.57 144.85 a3.5 3.5 0 1 0 7 0 a3.5 3.5 0 1 0 -7 0zM427.25 162.35 a3.5 3.5 0 1 0 7 0 a3.5 3.5 0 1 0 -7 0zM396.94 144.85 a3.5 3.5 0 1 0 7 0 a3.5 3.5 0 1 0 -7 0zM396.94 109.85 a3.5 3.5 0 1 0 7 0 a3.5 3.5 0 1 0 -7 0zM457.57 249.85 a3.5 3.5 0 1 0 7 0 a3.5 3.5 0 1 0 -7 0zM487.88 267.35 a3.5 3.5 0 1 0 7 0 a3.5 3.5 0 1 0 -7 0zM487.88 302.35 a3.5 3.5 0 1 0 7 0 a3.5 3.5 0 1 0 -7 0zM457.57 319.85 a3.5 3.5 0 1 0 7 0 a3.5 3.5 0 1 0 -7 0zM427.25 407.35 a3.5 3.5 0 1 0 7 0 a3.5 3.5 0 1 0 -7 0zM457.57 424.85 a3.5 3.5 0 1 0 7 0 a3.5 3.5 0 1 0 -7 0zM457.57 459.85 a3.5 3.5 0 1 0 7 0 a3.5 3.5 0 1 0 -7 0zM427.25 477.35 a3.5 3.5 0 1 0 7 0 a3.5 3.5 0 1 0 -7 0zM396.94 459.85 a3.5 3.5 0 1 0 7 0 a3.5 3.5 0 1 0 -7 0zM396.94 424.85 a3.5 3.5 0 1 0 7 0 a3.5 3.5 0 1 0 -7 0zM518.19 144.85 a3.5 3.5 0 1 0 7 0 a3.5 3.5 0 1 0 -7 0zM548.5 162.35 a3.5 3.5 0 1 0 7 0 a3.5 3.5 0 1 0 -7 0zM548.5 197.35 a3.5 3.5 0 1 0 7 0 a3.5 3.5 0 1 0 -7 0zM518.19 214.85 a3.5 3.5 0 1 0 7 0 a3.5 3.5 0 1 0 -7 0zM487.88 197.35 a3.5 3.5 0 1 0 7 0 a3.5 3.5 0 1 0 -7 0zM487.88 162.35 a3.5 3.5 0 1 0 7 0 a3.5 3.5 0 1 0 -7 0zM518.19 319.85 a3.5 3.5 0 1 0 7 0 a3.5 3.5 0 1 0 -7 0zM518.19 354.85 a3.5 3.5 0 1 0 7 0 a3.5 3.5 0 1 0 -7 0zM487.88 372.35 a3.5 3.5 0 1 0 7 0 a3.5 3.5 0 1 0 -7 0zM457.57 354.85 a3.5 3.5 0 1 0 7 0 a3.5 3.5 0 1 0 -7 0zM548.5 -12.65 a3.5 3.5 0 1 0 7 0 a3.5 3.5 0 1 0 -7 0zM578.81 4.85 a3.5 3.5 0 1 0 7 0 a3.5 3.5 0 1 0 -7 0zM578.81 39.85 a3.5 3.5 0 1 0 7 0 a3.5 3.5 0 1 0 -7 0zM548.5 57.35 a3.5 3.5 0 1 0 7 0 a3.5 3.5 0 1 0 -7 0zM518.19 39.85 a3.5 3.5 0 1 0 7 0 a3.5 3.5 0 1 0 -7 0zM518.19 4.85 a3.5 3.5 0 1 0 7 0 a3.5 3.5 0 1 0 -7 0zM578.81 214.85 a3.5 3.5 0 1 0 7 0 a3.5 3.5 0 1 0 -7 0zM578.81 249.85 a3.5 3.5 0 1 0 7 0 a3.5 3.5 0 1 0 -7 0zM548.5 267.35 a3.5 3.5 0 1 0 7 0 a3.5 3.5 0 1 0 -7 0zM518.19 249.85 a3.5 3.5 0 1 0 7 0 a3.5 3.5 0 1 0 -7 0zM548.5 407.35 a3.5 3.5 0 1 0 7 0 a3.5 3.5 0 1 0 -7 0zM578.81 424.85 a3.5 3.5 0 1 0 7 0 a3.5 3.5 0 1 0 -7 0zM578.81 459.85 a3.5 3.5 0 1 0 7 0 a3.5 3.5 0 1 0 -7 0zM548.5 477.35 a3.5 3.5 0 1 0 7 0 a3.5 3.5 0 1 0 -7 0zM518.19 459.85 a3.5 3.5 0 1 0 7 0 a3.5 3.5 0 1 0 -7 0zM518.19 424.85 a3.5 3.5 0 1 0 7 0 a3.5 3.5 0 1 0 -7 0zM609.13 -12.65 a3.5 3.5 0 1 0 7 0 a3.5 3.5 0 1 0 -7 0zM639.44 4.85 a3.5 3.5 0 1 0 7 0 a3.5 3.5 0 1 0 -7 0zM639.44 39.85 a3.5 3.5 0 1 0 7 0 a3.5 3.5 0 1 0 -7 0zM609.13 57.35 a3.5 3.5 0 1 0 7 0 a3.5 3.5 0 1 0 -7 0zM609.13 302.35 a3.5 3.5 0 1 0 7 0 a3.5 3.5 0 1 0 -7 0zM639.44 319.85 a3.5 3.5 0 1 0 7 0 a3.5 3.5 0 1 0 -7 0zM639.44 354.85 a3.5 3.5 0 1 0 7 0 a3.5 3.5 0 1 0 -7 0zM609.13 372.35 a3.5 3.5 0 1 0 7 0 a3.5 3.5 0 1 0 -7 0zM578.81 354.85 a3.5 3.5 0 1 0 7 0 a3.5 3.5 0 1 0 -7 0zM578.81 319.85 a3.5 3.5 0 1 0 7 0 a3.5 3.5 0 1 0 -7 0zM669.75 92.35 a3.5 3.5 0 1 0 7 0 a3.5 3.5 0 1 0 -7 0zM700.06 109.85 a3.5 3.5 0 1 0 7 0 a3.5 3.5 0 1 0 -7 0zM700.06 144.85 a3.5 3.5 0 1 0 7 0 a3.5 3.5 0 1 0 -7 0zM669.75 162.35 a3.5 3.5 0 1 0 7 0 a3.5 3.5 0 1 0 -7 0zM639.44 144.85 a3.5 3.5 0 1 0 7 0 a3.5 3.5 0 1 0 -7 0zM639.44 109.85 a3.5 3.5 0 1 0 7 0 a3.5 3.5 0 1 0 -7 0zM669.75 197.35 a3.5 3.5 0 1 0 7 0 a3.5 3.5 0 1 0 -7 0zM700.06 214.85 a3.5 3.5 0 1 0 7 0 a3.5 3.5 0 1 0 -7 0zM700.06 249.85 a3.5 3.5 0 1 0 7 0 a3.5 3.5 0 1 0 -7 0zM669.75 267.35 a3.5 3.5 0 1 0 7 0 a3.5 3.5 0 1 0 -7 0zM639.44 249.85 a3.5 3.5 0 1 0 7 0 a3.5 3.5 0 1 0 -7 0zM639.44 214.85 a3.5 3.5 0 1 0 7 0 a3.5 3.5 0 1 0 -7 0zM700.06 564.85 a3.5 3.5 0 1 0 7 0 a3.5 3.5 0 1 0 -7 0zM730.37 582.35 a3.5 3.5 0 1 0 7 0 a3.5 3.5 0 1 0 -7 0zM730.37 617.35 a3.5 3.5 0 1 0 7 0 a3.5 3.5 0 1 0 -7 0zM700.06 634.85 a3.5 3.5 0 1 0 7 0 a3.5 3.5 0 1 0 -7 0zM669.75 617.35 a3.5 3.5 0 1 0 7 0 a3.5 3.5 0 1 0 -7 0zM669.75 582.35 a3.5 3.5 0 1 0 7 0 a3.5 3.5 0 1 0 -7 0zM730.37 302.35 a3.5 3.5 0 1 0 7 0 a3.5 3.5 0 1 0 -7 0zM760.68 319.85 a3.5 3.5 0 1 0 7 0 a3.5 3.5 0 1 0 -7 0zM760.68 354.85 a3.5 3.5 0 1 0 7 0 a3.5 3.5 0 1 0 -7 0zM730.37 372.35 a3.5 3.5 0 1 0 7 0 a3.5 3.5 0 1 0 -7 0zM700.06 354.85 a3.5 3.5 0 1 0 7 0 a3.5 3.5 0 1 0 -7 0zM700.06 319.85 a3.5 3.5 0 1 0 7 0 a3.5 3.5 0 1 0 -7 0zM791 372.35 a3.5 3.5 0 1 0 7 0 a3.5 3.5 0 1 0 -7 0zM791 407.35 a3.5 3.5 0 1 0 7 0 a3.5 3.5 0 1 0 -7 0zM760.68 424.85 a3.5 3.5 0 1 0 7 0 a3.5 3.5 0 1 0 -7 0zM730.37 407.35 a3.5 3.5 0 1 0 7 0 a3.5 3.5 0 1 0 -7 0zM730.37 512.35 a3.5 3.5 0 1 0 7 0 a3.5 3.5 0 1 0 -7 0zM760.68 529.85 a3.5 3.5 0 1 0 7 0 a3.5 3.5 0 1 0 -7 0zM760.68 564.85 a3.5 3.5 0 1 0 7 0 a3.5 3.5 0 1 0 -7 0zM700.06 529.85 a3.5 3.5 0 1 0 7 0 a3.5 3.5 0 1 0 -7 0zM791 -12.65 a3.5 3.5 0 1 0 7 0 a3.5 3.5 0 1 0 -7 0zM821.31 4.85 a3.5 3.5 0 1 0 7 0 a3.5 3.5 0 1 0 -7 0zM821.31 39.85 a3.5 3.5 0 1 0 7 0 a3.5 3.5 0 1 0 -7 0zM791 57.35 a3.5 3.5 0 1 0 7 0 a3.5 3.5 0 1 0 -7 0zM760.68 39.85 a3.5 3.5 0 1 0 7 0 a3.5 3.5 0 1 0 -7 0zM760.68 4.85 a3.5 3.5 0 1 0 7 0 a3.5 3.5 0 1 0 -7 0zM821.31 424.85 a3.5 3.5 0 1 0 7 0 a3.5 3.5 0 1 0 -7 0zM821.31 459.85 a3.5 3.5 0 1 0 7 0 a3.5 3.5 0 1 0 -7 0zM791 477.35 a3.5 3.5 0 1 0 7 0 a3.5 3.5 0 1 0 -7 0zM760.68 459.85 a3.5 3.5 0 1 0 7 0 a3.5 3.5 0 1 0 -7 0zM821.31 564.85 a3.5 3.5 0 1 0 7 0 a3.5 3.5 0 1 0 -7 0zM851.62 582.35 a3.5 3.5 0 1 0 7 0 a3.5 3.5 0 1 0 -7 0zM851.62 617.35 a3.5 3.5 0 1 0 7 0 a3.5 3.5 0 1 0 -7 0zM821.31 634.85 a3.5 3.5 0 1 0 7 0 a3.5 3.5 0 1 0 -7 0zM791 617.35 a3.5 3.5 0 1 0 7 0 a3.5 3.5 0 1 0 -7 0zM791 582.35 a3.5 3.5 0 1 0 7 0 a3.5 3.5 0 1 0 -7 0zM881.93 354.85 a3.5 3.5 0 1 0 7 0 a3.5 3.5 0 1 0 -7 0zM912.24 372.35 a3.5 3.5 0 1 0 7 0 a3.5 3.5 0 1 0 -7 0zM912.24 407.35 a3.5 3.5 0 1 0 7 0 a3.5 3.5 0 1 0 -7 0zM881.93 424.85 a3.5 3.5 0 1 0 7 0 a3.5 3.5 0 1 0 -7 0zM851.62 407.35 a3.5 3.5 0 1 0 7 0 a3.5 3.5 0 1 0 -7 0zM851.62 372.35 a3.5 3.5 0 1 0 7 0 a3.5 3.5 0 1 0 -7 0zM942.55 354.85 a3.5 3.5 0 1 0 7 0 a3.5 3.5 0 1 0 -7 0zM972.87 372.35 a3.5 3.5 0 1 0 7 0 a3.5 3.5 0 1 0 -7 0zM972.87 407.35 a3.5 3.5 0 1 0 7 0 a3.5 3.5 0 1 0 -7 0zM942.55 424.85 a3.5 3.5 0 1 0 7 0 a3.5 3.5 0 1 0 -7 0zM942.55 459.85 a3.5 3.5 0 1 0 7 0 a3.5 3.5 0 1 0 -7 0zM912.24 477.35 a3.5 3.5 0 1 0 7 0 a3.5 3.5 0 1 0 -7 0zM881.93 459.85 a3.5 3.5 0 1 0 7 0 a3.5 3.5 0 1 0 -7 0zM1003.18 144.85 a3.5 3.5 0 1 0 7 0 a3.5 3.5 0 1 0 -7 0zM1033.49 162.35 a3.5 3.5 0 1 0 7 0 a3.5 3.5 0 1 0 -7 0zM1033.49 197.35 a3.5 3.5 0 1 0 7 0 a3.5 3.5 0 1 0 -7 0zM1003.18 214.85 a3.5 3.5 0 1 0 7 0 a3.5 3.5 0 1 0 -7 0zM972.87 197.35 a3.5 3.5 0 1 0 7 0 a3.5 3.5 0 1 0 -7 0zM972.87 162.35 a3.5 3.5 0 1 0 7 0 a3.5 3.5 0 1 0 -7 0zM1033.49 -12.65 a3.5 3.5 0 1 0 7 0 a3.5 3.5 0 1 0 -7 0zM1063.8 4.85 a3.5 3.5 0 1 0 7 0 a3.5 3.5 0 1 0 -7 0zM1063.8 39.85 a3.5 3.5 0 1 0 7 0 a3.5 3.5 0 1 0 -7 0zM1033.49 57.35 a3.5 3.5 0 1 0 7 0 a3.5 3.5 0 1 0 -7 0zM1003.18 39.85 a3.5 3.5 0 1 0 7 0 a3.5 3.5 0 1 0 -7 0zM1003.18 4.85 a3.5 3.5 0 1 0 7 0 a3.5 3.5 0 1 0 -7 0zM1094.11 92.35 a3.5 3.5 0 1 0 7 0 a3.5 3.5 0 1 0 -7 0zM1124.42 109.85 a3.5 3.5 0 1 0 7 0 a3.5 3.5 0 1 0 -7 0zM1124.42 144.85 a3.5 3.5 0 1 0 7 0 a3.5 3.5 0 1 0 -7 0zM1094.11 162.35 a3.5 3.5 0 1 0 7 0 a3.5 3.5 0 1 0 -7 0zM1063.8 144.85 a3.5 3.5 0 1 0 7 0 a3.5 3.5 0 1 0 -7 0zM1063.8 109.85 a3.5 3.5 0 1 0 7 0 a3.5 3.5 0 1 0 -7 0zM1154.74 162.35 a3.5 3.5 0 1 0 7 0 a3.5 3.5 0 1 0 -7 0zM1154.74 197.35 a3.5 3.5 0 1 0 7 0 a3.5 3.5 0 1 0 -7 0zM1124.42 214.85 a3.5 3.5 0 1 0 7 0 a3.5 3.5 0 1 0 -7 0zM1094.11 197.35 a3.5 3.5 0 1 0 7 0 a3.5 3.5 0 1 0 -7 0zM1124.42 249.85 a3.5 3.5 0 1 0 7 0 a3.5 3.5 0 1 0 -7 0zM1154.74 267.35 a3.5 3.5 0 1 0 7 0 a3.5 3.5 0 1 0 -7 0zM1154.74 302.35 a3.5 3.5 0 1 0 7 0 a3.5 3.5 0 1 0 -7 0zM1124.42 319.85 a3.5 3.5 0 1 0 7 0 a3.5 3.5 0 1 0 -7 0zM1094.11 302.35 a3.5 3.5 0 1 0 7 0 a3.5 3.5 0 1 0 -7 0zM1094.11 267.35 a3.5 3.5 0 1 0 7 0 a3.5 3.5 0 1 0 -7 0zM1094.11 407.35 a3.5 3.5 0 1 0 7 0 a3.5 3.5 0 1 0 -7 0zM1124.42 424.85 a3.5 3.5 0 1 0 7 0 a3.5 3.5 0 1 0 -7 0zM1124.42 459.85 a3.5 3.5 0 1 0 7 0 a3.5 3.5 0 1 0 -7 0zM1094.11 477.35 a3.5 3.5 0 1 0 7 0 a3.5 3.5 0 1 0 -7 0zM1063.8 459.85 a3.5 3.5 0 1 0 7 0 a3.5 3.5 0 1 0 -7 0zM1063.8 424.85 a3.5 3.5 0 1 0 7 0 a3.5 3.5 0 1 0 -7 0zM1154.74 477.35 a3.5 3.5 0 1 0 7 0 a3.5 3.5 0 1 0 -7 0zM1154.74 512.35 a3.5 3.5 0 1 0 7 0 a3.5 3.5 0 1 0 -7 0zM1124.42 529.85 a3.5 3.5 0 1 0 7 0 a3.5 3.5 0 1 0 -7 0zM1094.11 512.35 a3.5 3.5 0 1 0 7 0 a3.5 3.5 0 1 0 -7 0zM1124.42 564.85 a3.5 3.5 0 1 0 7 0 a3.5 3.5 0 1 0 -7 0zM1154.74 582.35 a3.5 3.5 0 1 0 7 0 a3.5 3.5 0 1 0 -7 0zM1154.74 617.35 a3.5 3.5 0 1 0 7 0 a3.5 3.5 0 1 0 -7 0zM1124.42 634.85 a3.5 3.5 0 1 0 7 0 a3.5 3.5 0 1 0 -7 0zM1094.11 617.35 a3.5 3.5 0 1 0 7 0 a3.5 3.5 0 1 0 -7 0zM1094.11 582.35 a3.5 3.5 0 1 0 7 0 a3.5 3.5 0 1 0 -7 0zM1185.05 39.85 a3.5 3.5 0 1 0 7 0 a3.5 3.5 0 1 0 -7 0zM1215.36 57.35 a3.5 3.5 0 1 0 7 0 a3.5 3.5 0 1 0 -7 0zM1215.36 92.35 a3.5 3.5 0 1 0 7 0 a3.5 3.5 0 1 0 -7 0zM1185.05 109.85 a3.5 3.5 0 1 0 7 0 a3.5 3.5 0 1 0 -7 0zM1154.74 92.35 a3.5 3.5 0 1 0 7 0 a3.5 3.5 0 1 0 -7 0zM1154.74 57.35 a3.5 3.5 0 1 0 7 0 a3.5 3.5 0 1 0 -7 0zM1185.05 459.85 a3.5 3.5 0 1 0 7 0 a3.5 3.5 0 1 0 -7 0zM1215.36 477.35 a3.5 3.5 0 1 0 7 0 a3.5 3.5 0 1 0 -7 0zM1215.36 512.35 a3.5 3.5 0 1 0 7 0 a3.5 3.5 0 1 0 -7 0zM1185.05 529.85 a3.5 3.5 0 1 0 7 0 a3.5 3.5 0 1 0 -7 0zM1215.36 302.35 a3.5 3.5 0 1 0 7 0 a3.5 3.5 0 1 0 -7 0zM1245.67 319.85 a3.5 3.5 0 1 0 7 0 a3.5 3.5 0 1 0 -7 0zM1245.67 354.85 a3.5 3.5 0 1 0 7 0 a3.5 3.5 0 1 0 -7 0zM1215.36 372.35 a3.5 3.5 0 1 0 7 0 a3.5 3.5 0 1 0 -7 0zM1185.05 354.85 a3.5 3.5 0 1 0 7 0 a3.5 3.5 0 1 0 -7 0zM1185.05 319.85 a3.5 3.5 0 1 0 7 0 a3.5 3.5 0 1 0 -7 0zM1245.67 529.85 a3.5 3.5 0 1 0 7 0 a3.5 3.5 0 1 0 -7 0zM1245.67 564.85 a3.5 3.5 0 1 0 7 0 a3.5 3.5 0 1 0 -7 0zM1215.36 582.35 a3.5 3.5 0 1 0 7 0 a3.5 3.5 0 1 0 -7 0zM1185.05 564.85 a3.5 3.5 0 1 0 7 0 a3.5 3.5 0 1 0 -7 0zM1275.98 -12.65 a3.5 3.5 0 1 0 7 0 a3.5 3.5 0 1 0 -7 0zM1306.3 4.85 a3.5 3.5 0 1 0 7 0 a3.5 3.5 0 1 0 -7 0zM1306.3 39.85 a3.5 3.5 0 1 0 7 0 a3.5 3.5 0 1 0 -7 0zM1275.98 57.35 a3.5 3.5 0 1 0 7 0 a3.5 3.5 0 1 0 -7 0zM1245.67 39.85 a3.5 3.5 0 1 0 7 0 a3.5 3.5 0 1 0 -7 0zM1245.67 4.85 a3.5 3.5 0 1 0 7 0 a3.5 3.5 0 1 0 -7 0zM1306.3 459.85 a3.5 3.5 0 1 0 7 0 a3.5 3.5 0 1 0 -7 0zM1336.61 477.35 a3.5 3.5 0 1 0 7 0 a3.5 3.5 0 1 0 -7 0zM1336.61 512.35 a3.5 3.5 0 1 0 7 0 a3.5 3.5 0 1 0 -7 0zM1306.3 529.85 a3.5 3.5 0 1 0 7 0 a3.5 3.5 0 1 0 -7 0zM1275.98 512.35 a3.5 3.5 0 1 0 7 0 a3.5 3.5 0 1 0 -7 0zM1275.98 477.35 a3.5 3.5 0 1 0 7 0 a3.5 3.5 0 1 0 -7 0zM1306.3 564.85 a3.5 3.5 0 1 0 7 0 a3.5 3.5 0 1 0 -7 0zM1275.98 582.35 a3.5 3.5 0 1 0 7 0 a3.5 3.5 0 1 0 -7 0zM1366.92 249.85 a3.5 3.5 0 1 0 7 0 a3.5 3.5 0 1 0 -7 0zM1397.23 267.35 a3.5 3.5 0 1 0 7 0 a3.5 3.5 0 1 0 -7 0zM1397.23 302.35 a3.5 3.5 0 1 0 7 0 a3.5 3.5 0 1 0 -7 0zM1366.92 319.85 a3.5 3.5 0 1 0 7 0 a3.5 3.5 0 1 0 -7 0zM1336.61 302.35 a3.5 3.5 0 1 0 7 0 a3.5 3.5 0 1 0 -7 0zM1336.61 267.35 a3.5 3.5 0 1 0 7 0 a3.5 3.5 0 1 0 -7 0zM1366.92 459.85 a3.5 3.5 0 1 0 7 0 a3.5 3.5 0 1 0 -7 0zM1397.23 477.35 a3.5 3.5 0 1 0 7 0 a3.5 3.5 0 1 0 -7 0zM1397.23 512.35 a3.5 3.5 0 1 0 7 0 a3.5 3.5 0 1 0 -7 0zM1366.92 529.85 a3.5 3.5 0 1 0 7 0 a3.5 3.5 0 1 0 -7 0zM1397.23 92.35 a3.5 3.5 0 1 0 7 0 a3.5 3.5 0 1 0 -7 0zM1427.54 109.85 a3.5 3.5 0 1 0 7 0 a3.5 3.5 0 1 0 -7 0zM1427.54 144.85 a3.5 3.5 0 1 0 7 0 a3.5 3.5 0 1 0 -7 0zM1397.23 162.35 a3.5 3.5 0 1 0 7 0 a3.5 3.5 0 1 0 -7 0zM1366.92 144.85 a3.5 3.5 0 1 0 7 0 a3.5 3.5 0 1 0 -7 0zM1366.92 109.85 a3.5 3.5 0 1 0 7 0 a3.5 3.5 0 1 0 -7 0z" fill="rgba(143, 184, 225, 0.72)"></path><path d="M249.82 -66.16L358.08 -3.66L358.08 121.34L249.82 183.84L141.57 121.34L141.57 -3.66zM358.08 121.34L466.33 183.84L466.33 308.84L358.08 371.34L249.82 308.84L249.82 183.84zM574.59 496.34L682.85 558.84L682.85 683.84L574.59 746.34L466.33 683.84L466.33 558.84zM1440.64 496.34L1548.9 558.84L1548.9 683.84L1440.64 746.34L1332.38 683.84L1332.38 558.84z" stroke="rgba(10, 71, 133, 0.71)" stroke-width="2"></path></g><defs><mask id="SvgjsMask1055"><rect width="1440" height="560" fill="#ffffff"></rect></mask></defs></svg>